<?xml version="1.0" encoding="UTF-8"?>
<svg  stroke='#00a8ff'
	 fill='#00a8ff' xmlns="http://www.w3.org/2000/svg" width="512" height="512" viewBox="0 0 512 512"><g><path d="M476,104H337.81l-75.6-93.04a7.994,7.994,0,0,0-12.42,0L174.19,104H36A28.031,28.031,0,0,0,8,132V412a28.031,28.031,0,0,0,28,28H196.18l-9.6,24H144a8,8,0,0,0-8,8v24a8,8,0,0,0,8,8H368a8,8,0,0,0,8-8V472a8,8,0,0,0-8-8H325.42l-9.6-24H476a28.031,28.031,0,0,0,28-28V132A28.031,28.031,0,0,0,476,104ZM184.17,117.09h.01L256,28.69l71.82,88.4h.01L343.19,136H312a8,8,0,0,0-8,8V296H208V144a8,8,0,0,0-8-8H168.81ZM360,480v8H152v-8ZM203.82,464l9.6-24h85.16l9.6,24ZM488,412a12.01,12.01,0,0,1-12,12H36a12.01,12.01,0,0,1-12-12V392H488Zm0-36H24V132a12.01,12.01,0,0,1,12-12H161.19l-15.4,18.96A8,8,0,0,0,152,152h40V304a8,8,0,0,0,8,8H312a8,8,0,0,0,8-8V152h40a8,8,0,0,0,6.21-13.04L350.81,120H476a12.01,12.01,0,0,1,12,12Z"/><path d="M200,360H312a8,8,0,0,0,8-8V328a8,8,0,0,0-8-8H200a8,8,0,0,0-8,8v24A8,8,0,0,0,200,360Zm8-24h96v8H208Z"/></g></svg>
